<svg version="1.1" id="Layer_1" xmlns="http://www.w3.org/2000/svg" xmlns:xlink="http://www.w3.org/1999/xlink" x="0px" y="0px"
	 width="100%" viewBox="0 0 500 303" enable-background="new 0 0 500 303" xml:space="preserve">
<path fill="#FFFFFF" opacity="1.000000" stroke="none" 
	d="
M318.000000,304.000000 
	C212.032837,304.000000 106.565674,304.000000 1.049256,304.000000 
	C1.049256,203.064301 1.049256,102.128555 1.049256,1.096411 
	C167.550461,1.096411 334.101013,1.096411 500.825775,1.096411 
	C500.825775,101.999756 500.825775,202.999847 500.825775,304.000000 
	C440.128601,304.000000 379.314301,304.000000 318.000000,304.000000 
M7.420938,135.840012 
	C11.847341,140.011795 15.819304,144.860260 20.800730,148.205566 
	C29.479597,154.033951 38.833721,158.849091 47.767368,164.313614 
	C49.208752,165.195267 50.751377,167.177643 50.869789,168.754623 
	C51.776852,180.834396 52.120815,192.957581 53.088924,205.031265 
	C53.795475,213.842880 56.976910,221.765625 65.395851,225.960526 
	C73.927261,230.211472 82.113281,228.046967 89.097977,222.275085 
	C95.107811,217.308807 100.579659,211.674530 106.138428,206.182831 
	C118.515228,193.955383 118.443291,194.003967 134.826599,200.263870 
	C144.275986,203.874420 153.622009,208.219513 163.424210,210.343033 
	C182.066132,214.381546 193.165436,198.734970 189.126480,184.997818 
	C187.866882,180.713684 186.350281,176.504898 185.104492,172.217102 
	C184.781204,171.104370 184.790085,169.763016 185.070419,168.631760 
	C185.916412,165.217926 187.255707,161.905045 187.852371,158.457581 
	C188.313019,155.795959 187.944260,152.990784 187.944260,150.860016 
	C198.208084,149.800995 207.504440,148.841797 217.159027,147.845642 
	C216.825867,147.043503 217.052063,147.337296 217.055115,147.633392 
	C217.096390,151.631241 217.090851,155.629547 217.127884,159.627457 
	C217.202591,167.691544 219.551849,170.082657 227.424515,170.084351 
	C256.074402,170.090469 284.724945,170.176483 313.373413,169.974457 
	C317.005127,169.948853 320.626038,168.394424 325.175476,167.332779 
	C327.933624,168.023682 332.005859,169.769363 336.142212,169.937561 
	C346.621277,170.363678 357.130920,169.968857 367.624695,170.134521 
	C372.376617,170.209549 374.663910,167.769730 375.568787,163.548035 
	C375.878265,162.104080 375.895233,160.571014 375.857971,159.083374 
	C375.596039,148.624603 375.134369,138.168274 375.050232,127.708656 
	C375.004944,122.081146 375.783081,116.450157 375.825195,110.818016 
	C375.880737,103.394798 373.302887,100.939575 366.019012,100.918365 
	C358.355072,100.896042 350.690857,100.942986 343.027039,100.904213 
	C336.373077,100.870544 329.627045,100.303864 325.812805,103.699913 
	C320.147644,102.537498 316.194397,101.050423 312.230560,101.021538 
	C284.249725,100.817566 256.266144,100.826996 228.285110,101.017677 
	C224.613541,101.042702 220.951645,102.485840 216.729584,103.391335 
	C210.962433,102.362068 204.217316,101.158272 197.307983,99.925163 
	C197.282547,99.803322 197.015839,99.287895 197.105240,98.844231 
	C200.359375,82.695770 186.968033,73.057655 174.964920,74.003746 
	C163.396271,74.915596 151.817337,75.730438 140.270020,76.863998 
	C135.321228,77.349815 131.613968,76.858307 128.442886,72.081749 
	C122.107780,62.539223 115.192238,53.354424 108.104652,44.345825 
	C98.588165,32.250000 83.356812,31.709112 74.463066,43.339344 
	C71.435692,47.298206 69.477997,52.384640 68.138458,57.259983 
	C65.376244,67.313316 63.219162,77.542435 61.108620,87.760269 
	C60.341503,91.474152 58.498585,93.179787 54.921227,94.317726 
	C43.376259,97.990105 31.859100,101.802010 20.528027,106.081245 
	C6.989152,111.194267 1.977988,122.487167 7.420938,135.840012 
M246.502670,174.000000 
	C242.339157,174.009705 238.173294,173.933395 234.012589,174.046326 
	C224.207626,174.312393 217.071213,179.729370 215.047913,189.291229 
	C213.266846,197.708298 212.565231,206.350128 210.902176,214.797256 
	C209.976318,219.499939 211.407425,225.006409 206.754700,228.664368 
	C203.490585,231.230637 200.290405,233.882126 197.130783,236.576599 
	C192.199203,240.782135 187.326233,245.056381 182.214050,249.487289 
	C235.105453,249.487289 287.251251,249.487289 339.795654,249.487289 
	C339.795654,242.030670 339.801453,234.588150 339.789459,227.145676 
	C339.787628,226.020035 339.456116,224.838776 339.695709,223.777786 
	C341.584869,215.413223 343.798706,207.116440 345.486420,198.713196 
	C348.501282,183.702148 340.395050,174.133530 325.000305,173.984268 
	C305.662170,173.796753 286.326019,174.428223 266.987244,174.021637 
	C260.494781,173.885147 253.997055,174.000015 246.502670,174.000000 
M388.924683,203.418411 
	C414.639954,188.978058 438.087372,171.609558 457.766296,149.497131 
	C468.899719,136.986923 478.464142,123.423187 483.480835,107.173073 
	C490.674133,83.872414 480.683777,66.847389 456.950531,61.781246 
	C442.452454,58.686455 428.110199,60.324043 413.926178,63.588478 
	C404.754913,65.699234 395.753571,68.548302 386.676117,71.066521 
	C386.800781,71.546501 386.925415,72.026482 387.050079,72.506470 
	C390.936920,71.784538 394.820221,71.043106 398.711151,70.344147 
	C413.439514,67.698395 428.151367,66.844849 442.601685,71.734322 
	C457.546875,76.791252 465.150696,88.101425 464.184082,103.731125 
	C463.299622,118.032089 456.765503,130.184662 448.863281,141.636963 
	C433.027771,164.586609 412.329041,182.503998 389.367859,197.929443 
	C380.591888,203.825180 371.449829,209.176010 362.474609,214.775162 
	C362.663269,215.196411 362.851959,215.617661 363.040649,216.038910 
	C371.459656,211.964249 379.878632,207.889603 388.924683,203.418411 
M359.995850,60.673454 
	C358.145844,58.851578 356.295807,57.029701 354.445801,55.207825 
	C359.230835,64.772995 358.367218,73.088249 348.896423,80.358887 
	C359.631348,76.335670 367.941986,78.008087 373.913849,88.401581 
	C372.982941,83.034531 371.007263,78.335815 371.762604,74.127243 
	C372.526428,69.871185 375.994537,66.100471 378.532562,61.673214 
	C372.364716,63.500412 366.240875,66.156059 359.995850,60.673454 
z"/>
<path fill="#FEEF8D" opacity="1.000000" stroke="none" 
	d="
M7.240883,135.500519 
	C1.977988,122.487167 6.989152,111.194267 20.528027,106.081245 
	C31.859100,101.802010 43.376259,97.990105 54.921227,94.317726 
	C58.498585,93.179787 60.341503,91.474152 61.108620,87.760269 
	C63.219162,77.542435 65.376244,67.313316 68.138458,57.259983 
	C69.477997,52.384640 71.435692,47.298206 74.463066,43.339344 
	C83.356812,31.709112 98.588165,32.250000 108.104652,44.345825 
	C115.192238,53.354424 122.107780,62.539223 128.442886,72.081749 
	C131.613968,76.858307 135.321228,77.349815 140.270020,76.863998 
	C151.817337,75.730438 163.396271,74.915596 174.964920,74.003746 
	C186.968033,73.057655 200.359375,82.695770 197.105240,98.844231 
	C197.015839,99.287895 197.282547,99.803322 197.307983,99.925163 
	C204.217316,101.158272 210.962433,102.362068 216.729584,103.391335 
	C220.951645,102.485840 224.613541,101.042702 228.285110,101.017677 
	C256.266144,100.826996 284.249725,100.817566 312.230560,101.021538 
	C316.194397,101.050423 320.147644,102.537498 325.812805,103.699913 
	C329.627045,100.303864 336.373077,100.870544 343.027039,100.904213 
	C350.690857,100.942986 358.355072,100.896042 366.019012,100.918365 
	C373.302887,100.939575 375.880737,103.394798 375.825195,110.818016 
	C375.783081,116.450157 375.004944,122.081146 375.050232,127.708656 
	C375.134369,138.168274 375.596039,148.624603 375.857971,159.083374 
	C375.895233,160.571014 375.878265,162.104080 375.568787,163.548035 
	C374.663910,167.769730 372.376617,170.209549 367.624695,170.134521 
	C357.130920,169.968857 346.621277,170.363678 336.142212,169.937561 
	C332.005859,169.769363 327.933624,168.023682 325.175476,167.332779 
	C320.626038,168.394424 317.005127,169.948853 313.373413,169.974457 
	C284.724945,170.176483 256.074402,170.090469 227.424515,170.084351 
	C219.551849,170.082657 217.202591,167.691544 217.127884,159.627457 
	C217.090851,155.629547 217.096390,151.631241 217.055115,147.633392 
	C217.052063,147.337296 216.825867,147.043503 217.159027,147.845642 
	C207.504440,148.841797 198.208084,149.800995 187.944260,150.860016 
	C187.944260,152.990784 188.313019,155.795959 187.852371,158.457581 
	C187.255707,161.905045 185.916412,165.217926 185.070419,168.631760 
	C184.790085,169.763016 184.781204,171.104370 185.104492,172.217102 
	C186.350281,176.504898 187.866882,180.713684 189.126480,184.997818 
	C193.165436,198.734970 182.066132,214.381546 163.424210,210.343033 
	C153.622009,208.219513 144.275986,203.874420 134.826599,200.263870 
	C118.443291,194.003967 118.515228,193.955383 106.138428,206.182831 
	C100.579659,211.674530 95.107811,217.308807 89.097977,222.275085 
	C82.113281,228.046967 73.927261,230.211472 65.395851,225.960526 
	C56.976910,221.765625 53.795475,213.842880 53.088924,205.031265 
	C52.120815,192.957581 51.776852,180.834396 50.869789,168.754623 
	C50.751377,167.177643 49.208752,165.195267 47.767368,164.313614 
	C38.833721,158.849091 29.479597,154.033951 20.800730,148.205566 
	C15.819304,144.860260 11.847341,140.011795 7.240883,135.500519 
M157.913010,169.489044 
	C157.627609,169.282806 157.342224,169.076553 156.736618,168.228226 
	C156.124390,166.142517 155.512146,164.056793 154.957016,161.039795 
	C154.927063,147.104294 154.897095,133.168808 154.949768,118.278503 
	C155.550125,112.327324 152.990158,105.640770 159.000336,100.983856 
	C159.000336,100.983856 158.960159,100.987854 159.870590,100.999832 
	C162.612869,100.921219 165.355164,100.842598 169.010910,100.833832 
	C173.065659,100.765930 177.120392,100.698029 182.068665,100.767075 
	C184.567459,100.785309 187.103867,100.536118 189.556671,100.881233 
	C193.776016,101.474915 194.679688,99.051224 194.953400,95.699814 
	C195.579254,88.036781 191.090134,80.279900 183.456680,78.419762 
	C177.775620,77.035378 171.604858,77.050468 165.697037,77.344254 
	C155.904694,77.831223 146.132217,78.902718 136.385040,80.021362 
	C132.573242,80.458824 130.291443,79.176788 128.112686,76.103325 
	C120.989311,66.054764 113.904289,55.947105 106.187149,46.359074 
	C95.415901,32.976501 79.103905,35.734180 72.742638,51.684093 
	C71.947517,53.677723 71.410110,55.788658 70.908646,57.882446 
	C68.276840,68.871231 65.607330,79.852486 63.153587,90.881439 
	C62.487164,93.876846 60.971104,95.291824 58.095818,96.215492 
	C47.335735,99.672142 36.638443,103.330009 25.968973,107.059395 
	C22.847700,108.150398 19.704105,109.416008 16.902542,111.140594 
	C6.546933,117.515236 4.569407,129.328476 12.653177,138.423538 
	C15.672580,141.820679 19.738976,144.426041 23.661659,146.853165 
	C32.289810,152.191742 41.064991,157.303955 49.920269,162.258102 
	C52.985130,163.972763 53.822067,166.220490 53.963531,169.519485 
	C54.476635,181.485397 55.083679,193.454025 56.025803,205.392395 
	C56.639545,213.169632 59.284897,220.292068 66.995148,223.724228 
	C74.400604,227.020691 81.362289,224.923767 87.580872,220.213120 
	C89.957352,218.412918 92.126976,216.318848 94.268295,214.232880 
	C100.710243,207.957413 107.131340,201.659317 113.478447,195.288239 
	C116.178139,192.578354 118.750908,191.630447 122.704315,193.222519 
	C133.650253,197.630585 144.754211,201.664856 155.899521,205.549057 
	C159.773331,206.899109 163.923050,207.942657 167.995667,208.145782 
	C179.996628,208.744354 188.252228,200.372192 186.776825,188.465271 
	C186.037964,182.502411 184.202911,176.158188 180.938629,171.272644 
	C179.577942,169.236115 173.203552,170.549484 168.194534,170.160660 
	C164.796021,170.097992 161.397522,170.035339 157.991394,170.006348 
	C157.991394,170.006348 158.025620,170.010910 157.913010,169.489044 
M274.214233,138.542465 
	C274.214752,145.873306 274.257446,153.204529 274.193481,160.534805 
	C274.170288,163.193771 274.605652,165.053589 277.939331,165.029373 
	C290.267822,164.939774 302.599457,165.094910 314.923462,164.843246 
	C316.203217,164.817108 318.519104,162.710785 318.535034,161.544830 
	C318.771301,144.221008 318.773560,126.892021 318.542175,109.568123 
	C318.526276,108.376831 316.307037,106.331932 314.966248,106.202881 
	C310.508942,105.773865 305.970337,106.261665 301.490692,105.970459 
	C297.514893,105.712013 296.168427,107.262398 296.238495,111.123116 
	C296.401764,120.117111 296.329926,129.116440 296.252106,138.112732 
	C296.238098,139.733627 295.740417,141.350327 295.466064,142.968979 
	C294.913727,142.989380 294.361389,143.009796 293.809052,143.030212 
	C293.502258,141.451889 292.944366,139.875854 292.930023,138.294891 
	C292.845459,128.965469 292.829681,119.634346 292.921265,110.305077 
	C292.949249,107.453911 292.126648,105.978233 288.973114,106.002289 
	C276.811249,106.095047 264.647797,106.099907 252.486099,105.997177 
	C249.615921,105.972939 248.714645,107.125458 248.725037,109.851646 
	C248.790344,127.012268 248.793961,144.173386 248.724442,161.333984 
	C248.712875,164.188019 249.889053,165.126617 252.625732,165.034378 
	C256.952667,164.888519 261.308777,164.733215 265.614258,165.070618 
	C269.991211,165.413651 270.998077,163.496841 270.898773,159.536438 
	C270.681671,150.878159 270.790802,142.210266 270.870026,133.547241 
	C270.884583,131.958099 271.387451,130.373398 271.664917,128.786652 
	C272.367340,128.804993 273.069763,128.823334 273.772217,128.841675 
	C273.919647,131.747284 274.067078,134.652893 274.214233,138.542465 
M219.141129,125.487297 
	C219.132172,123.990730 219.162796,122.492714 219.107742,120.997841 
	C218.779007,112.071442 213.246475,106.247200 204.375946,106.111115 
	C191.075424,105.907051 177.769150,106.105377 164.466400,105.997932 
	C161.491577,105.973907 160.188385,107.080132 160.193283,110.035255 
	C160.221680,127.163582 160.134903,144.292938 160.361572,161.418304 
	C160.377518,162.623489 162.525665,164.721436 163.810471,164.825745 
	C168.766647,165.228119 173.792969,165.218903 178.751144,164.828888 
	C180.001465,164.730545 181.956680,162.746857 182.101395,161.462082 
	C182.545349,157.520691 182.420792,153.490555 182.226364,149.509109 
	C182.041000,145.713730 183.391861,143.979630 187.382477,144.168228 
	C192.028336,144.387817 196.692612,144.227829 201.348846,144.215225 
	C214.189835,144.180450 219.018051,139.349686 219.141129,125.487297 
M344.271729,129.902802 
	C344.055359,126.831108 345.591553,125.872131 348.514771,125.945778 
	C354.335266,126.092422 360.164581,125.886482 365.985352,126.027626 
	C368.951080,126.099548 370.259827,125.070374 370.140625,121.998337 
	C369.985931,118.010590 370.027435,114.010353 370.129913,110.019226 
	C370.197205,107.398758 369.422882,105.982864 366.479004,106.014267 
	C356.495880,106.120773 346.504181,105.853951 336.529388,106.165878 
	C328.994019,106.401520 323.290283,111.246330 322.849274,118.777229 
	C322.200165,129.862381 322.159882,141.043854 322.831940,152.125366 
	C323.319672,160.167145 329.193787,164.795746 337.350555,164.940308 
	C346.832794,165.108383 356.321777,164.887527 365.804352,165.045349 
	C369.068146,165.099670 370.222382,163.926559 370.157074,160.696945 
	C370.012451,153.544662 370.134003,146.387009 370.146393,139.231537 
	C370.162750,129.794617 370.162537,129.794601 360.610107,129.794510 
	C348.794464,129.794403 348.794373,129.794418 348.069672,141.419922 
	C348.059357,141.585754 348.128845,141.791443 348.054291,141.912903 
	C347.449738,142.897705 346.819672,143.866791 346.197388,144.840668 
	C345.558990,143.829926 344.436157,142.849884 344.369781,141.802902 
	C344.138641,138.156357 344.273376,134.486633 344.271729,129.902802 
M244.964035,135.500000 
	C244.963699,127.168182 244.875519,118.834969 245.008377,110.505280 
	C245.058090,107.388298 244.146835,105.860878 240.765640,106.000343 
	C236.274109,106.185593 231.763748,106.180832 227.271820,106.000473 
	C224.059616,105.871490 222.856384,107.021683 222.878860,110.314209 
	C222.993790,127.143700 222.995331,143.974823 222.878845,160.804291 
	C222.855591,164.162659 224.188324,165.173630 227.340820,165.034348 
	C231.498596,164.850677 235.684616,164.777985 239.832474,165.051819 
	C243.712418,165.307938 245.194473,164.063187 245.046616,159.992722 
	C244.762527,152.171127 244.963974,144.331909 244.964035,135.500000 
z"/>
<path fill="#FFF28B" opacity="1.000000" stroke="none" 
	d="
M247.002197,174.000000 
	C253.997055,174.000015 260.494781,173.885147 266.987244,174.021637 
	C286.326019,174.428223 305.662170,173.796753 325.000305,173.984268 
	C340.395050,174.133530 348.501282,183.702148 345.486420,198.713196 
	C343.798706,207.116440 341.584869,215.413223 339.695709,223.777786 
	C339.456116,224.838776 339.787628,226.020035 339.789459,227.145676 
	C339.801453,234.588150 339.795654,242.030670 339.795654,249.487289 
	C287.251251,249.487289 235.105453,249.487289 182.214050,249.487289 
	C187.326233,245.056381 192.199203,240.782135 197.130783,236.576599 
	C200.290405,233.882126 203.490585,231.230637 206.754700,228.664368 
	C211.407425,225.006409 209.976318,219.499939 210.902176,214.797256 
	C212.565231,206.350128 213.266846,197.708298 215.047913,189.291229 
	C217.071213,179.729370 224.207626,174.312393 234.012589,174.046326 
	C238.173294,173.933395 242.339157,174.009705 247.002197,174.000000 
M330.009277,212.218170 
	C330.883789,206.306564 331.848572,200.406479 332.605011,194.479797 
	C333.240173,189.503479 331.446228,187.279205 326.238831,187.204285 
	C314.261108,187.031937 302.277985,187.057190 290.299713,187.210037 
	C286.887970,187.253555 283.361267,188.166824 282.718231,192.296661 
	C280.701721,205.247925 278.823578,218.222168 277.056885,231.209961 
	C276.588501,234.653229 278.740662,236.752380 282.006653,236.784775 
	C296.767212,236.931259 311.530060,236.848816 326.223083,236.848816 
	C328.201813,225.248413 326.352142,222.948730 315.313660,222.912430 
	C307.738251,222.887527 300.162720,222.907654 292.587219,222.907654 
	C292.422668,222.269135 292.258148,221.630630 292.093628,220.992111 
	C293.686432,220.361191 295.266571,219.224686 296.874176,219.184418 
	C305.022766,218.980255 313.178528,219.047913 321.331757,219.046585 
	C325.614624,219.045883 328.773407,217.506424 330.009277,212.218170 
M272.829834,187.198074 
	C260.666321,187.155502 248.501862,187.005859 236.339722,187.114258 
	C229.989059,187.170868 228.023880,189.057709 227.117813,195.272751 
	C225.990295,203.006866 225.289368,210.817490 223.818832,218.482773 
	C222.637543,224.640366 224.018906,231.608292 217.693893,237.001755 
	C220.696991,237.001755 222.646866,237.010498 224.596634,237.000275 
	C234.269897,236.949570 235.647507,235.739975 237.049393,226.077072 
	C238.028351,219.329208 238.901352,212.563202 240.054611,205.845276 
	C240.348602,204.132797 241.528122,202.572342 242.300751,200.942032 
	C242.922455,201.162659 243.544159,201.383270 244.165863,201.603882 
	C242.576569,213.209122 240.987274,224.814362 239.399521,236.408417 
	C250.588516,238.414963 253.555420,236.360550 255.088272,225.728790 
	C256.061310,218.979843 256.918182,212.210083 258.106628,205.499161 
	C258.391418,203.891006 259.789001,202.479919 260.674805,200.978210 
	C261.271057,201.249039 261.867310,201.519882 262.463593,201.790710 
	C260.927368,213.359909 259.391113,224.929092 257.803375,236.886261 
	C260.776245,236.886261 263.081879,236.972870 265.378601,236.866547 
	C269.097107,236.694427 271.971130,235.019745 272.559296,231.177582 
	C274.471283,218.687347 276.210022,206.169693 277.898712,193.646835 
	C278.323547,190.496704 277.184296,188.053406 272.829834,187.198074 
z"/>
<path fill="#EC2E7E" opacity="1.000000" stroke="none" 
	d="
M388.611145,203.616669 
	C379.878632,207.889603 371.459656,211.964249 363.040649,216.038910 
	C362.851959,215.617661 362.663269,215.196411 362.474609,214.775162 
	C371.449829,209.176010 380.591888,203.825180 389.367859,197.929443 
	C412.329041,182.503998 433.027771,164.586609 448.863281,141.636963 
	C456.765503,130.184662 463.299622,118.032089 464.184082,103.731125 
	C465.150696,88.101425 457.546875,76.791252 442.601685,71.734322 
	C428.151367,66.844849 413.439514,67.698395 398.711151,70.344147 
	C394.820221,71.043106 390.936920,71.784538 387.050079,72.506470 
	C386.925415,72.026482 386.800781,71.546501 386.676117,71.066521 
	C395.753571,68.548302 404.754913,65.699234 413.926178,63.588478 
	C428.110199,60.324043 442.452454,58.686455 456.950531,61.781246 
	C480.683777,66.847389 490.674133,83.872414 483.480835,107.173073 
	C478.464142,123.423187 468.899719,136.986923 457.766296,149.497131 
	C438.087372,171.609558 414.639954,188.978058 388.611145,203.616669 
z"/>
<path fill="#ED307F" opacity="1.000000" stroke="none" 
	d="
M360.277313,60.915451 
	C366.240875,66.156059 372.364716,63.500412 378.532562,61.673214 
	C375.994537,66.100471 372.526428,69.871185 371.762604,74.127243 
	C371.007263,78.335815 372.982941,83.034531 373.913849,88.401581 
	C367.941986,78.008087 359.631348,76.335670 348.896423,80.358887 
	C358.367218,73.088249 359.230835,64.772995 354.445801,55.207825 
	C356.295807,57.029701 358.145844,58.851578 360.277313,60.915451 
z"/>
<path fill="#F2E2E6" opacity="1.000000" stroke="none" 
	d="
M154.899902,161.971085 
	C155.512146,164.056793 156.124390,166.142517 156.971832,168.807266 
	C157.479919,169.594513 157.752762,169.802704 158.025620,170.010910 
	C158.025620,170.010910 157.991394,170.006348 157.980011,170.378922 
	C159.335876,174.908859 160.703125,179.066208 162.194839,183.601974 
	C148.321091,178.859329 135.160568,174.275894 121.938538,169.877380 
	C115.617889,167.774734 109.826500,168.863571 104.848236,173.560089 
	C100.493393,177.668488 96.030815,181.662460 91.649780,185.743439 
	C87.223671,189.866425 82.839317,194.034210 78.015358,198.579330 
	C77.302284,186.692688 76.443710,175.303894 75.997635,163.898987 
	C75.708717,156.512131 73.043884,150.726715 66.671455,146.786957 
	C60.021950,142.675919 53.422451,138.483444 46.749847,134.410522 
	C43.054996,132.155197 39.255280,130.071686 35.039562,127.643929 
	C46.547985,123.632454 57.080082,119.430084 67.929222,116.341309 
	C77.246651,113.688614 82.087830,108.060059 84.086143,98.840721 
	C86.488548,87.757080 89.537560,76.813599 92.444084,65.263138 
	C99.589310,74.918602 106.443497,84.088158 113.193939,93.333458 
	C118.165894,100.142975 124.253296,103.922836 133.181396,102.801842 
	C141.725067,101.729111 150.378220,101.528412 158.983261,100.944435 
	C152.990158,105.640770 155.550125,112.327324 154.647675,118.920052 
	C152.940140,121.621109 151.135391,123.518135 150.216736,125.775726 
	C148.570129,129.822311 145.683395,134.467682 146.483017,138.180511 
	C148.239578,146.336624 151.973312,154.066940 154.899902,161.971085 
z"/>
<path fill="#EC2C7C" opacity="1.000000" stroke="none" 
	d="
M169.108902,170.339661 
	C173.203552,170.549484 179.577942,169.236115 180.938629,171.272644 
	C184.202911,176.158188 186.037964,182.502411 186.776825,188.465271 
	C188.252228,200.372192 179.996628,208.744354 167.995667,208.145782 
	C163.923050,207.942657 159.773331,206.899109 155.899521,205.549057 
	C144.754211,201.664856 133.650253,197.630585 122.704315,193.222519 
	C118.750908,191.630447 116.178139,192.578354 113.478447,195.288239 
	C107.131340,201.659317 100.710243,207.957413 94.268295,214.232880 
	C92.126976,216.318848 89.957352,218.412918 87.580872,220.213120 
	C81.362289,224.923767 74.400604,227.020691 66.995148,223.724228 
	C59.284897,220.292068 56.639545,213.169632 56.025803,205.392395 
	C55.083679,193.454025 54.476635,181.485397 53.963531,169.519485 
	C53.822067,166.220490 52.985130,163.972763 49.920269,162.258102 
	C41.064991,157.303955 32.289810,152.191742 23.661659,146.853165 
	C19.738976,144.426041 15.672580,141.820679 12.653177,138.423538 
	C4.569407,129.328476 6.546933,117.515236 16.902542,111.140594 
	C19.704105,109.416008 22.847700,108.150398 25.968973,107.059395 
	C36.638443,103.330009 47.335735,99.672142 58.095818,96.215492 
	C60.971104,95.291824 62.487164,93.876846 63.153587,90.881439 
	C65.607330,79.852486 68.276840,68.871231 70.908646,57.882446 
	C71.410110,55.788658 71.947517,53.677723 72.742638,51.684093 
	C79.103905,35.734180 95.415901,32.976501 106.187149,46.359074 
	C113.904289,55.947105 120.989311,66.054764 128.112686,76.103325 
	C130.291443,79.176788 132.573242,80.458824 136.385040,80.021362 
	C146.132217,78.902718 155.904694,77.831223 165.697037,77.344254 
	C171.604858,77.050468 177.775620,77.035378 183.456680,78.419762 
	C191.090134,80.279900 195.579254,88.036781 194.953400,95.699814 
	C194.679688,99.051224 193.776016,101.474915 189.556671,100.881233 
	C187.103867,100.536118 184.567459,100.785309 181.665161,100.360046 
	C184.359467,92.445366 182.780991,89.133606 175.855270,88.951767 
	C172.200348,88.855812 168.525269,88.969566 164.878036,89.240768 
	C152.971741,90.126144 141.082886,91.296097 129.164474,91.920372 
	C127.146088,92.026100 124.331810,90.503044 123.046555,88.836761 
	C114.725075,78.048294 106.758171,66.987114 98.599953,56.071449 
	C96.224030,52.892471 93.822945,49.174431 89.072456,50.155670 
	C84.344711,51.132217 83.805687,55.658890 82.424606,59.336433 
	C82.250809,59.799236 82.178307,60.300495 82.064018,60.785152 
	C79.019257,73.696190 76.134918,86.649231 72.775627,99.477890 
	C72.207626,101.647011 69.946655,104.245529 67.868782,105.003639 
	C55.232464,109.613976 42.412968,113.720459 29.680191,118.069984 
	C27.490292,118.818047 25.319172,119.745598 23.319815,120.902153 
	C18.527636,123.674263 17.934475,127.543518 22.048601,131.401413 
	C24.551533,133.748459 27.672462,135.480423 30.644905,137.274796 
	C40.748104,143.373795 51.021229,149.202072 60.952385,155.566132 
	C62.937073,156.837952 64.650017,159.928040 64.870872,162.328537 
	C66.162506,176.366989 66.800285,190.465591 68.090973,204.504166 
	C68.351128,207.333847 69.875374,211.563629 71.886757,212.326340 
	C74.318146,213.248352 77.980164,211.407745 80.926262,210.282700 
	C82.362221,209.734360 83.388580,208.102936 84.589043,206.950012 
	C93.228577,198.652512 101.893539,190.381149 110.485771,182.034912 
	C113.120628,179.475494 115.807556,178.547211 119.485428,179.897583 
	C128.842804,183.333237 138.311203,186.465775 147.724991,189.748825 
	C153.674805,191.823822 159.484558,194.454086 165.576492,195.929611 
	C173.442322,197.834793 176.436691,194.348145 174.252228,186.377823 
	C172.769608,180.968231 170.839096,175.681396 169.108902,170.339661 
z"/>
<path fill="#ED83B4" opacity="1.000000" stroke="none" 
	d="
M168.651718,170.250153 
	C170.839096,175.681396 172.769608,180.968231 174.252228,186.377823 
	C176.436691,194.348145 173.442322,197.834793 165.576492,195.929611 
	C159.484558,194.454086 153.674805,191.823822 147.724991,189.748825 
	C138.311203,186.465775 128.842804,183.333237 119.485428,179.897583 
	C115.807556,178.547211 113.120628,179.475494 110.485771,182.034912 
	C101.893539,190.381149 93.228577,198.652512 84.589043,206.950012 
	C83.388580,208.102936 82.362221,209.734360 80.926262,210.282700 
	C77.980164,211.407745 74.318146,213.248352 71.886757,212.326340 
	C69.875374,211.563629 68.351128,207.333847 68.090973,204.504166 
	C66.800285,190.465591 66.162506,176.366989 64.870872,162.328537 
	C64.650017,159.928040 62.937073,156.837952 60.952385,155.566132 
	C51.021229,149.202072 40.748104,143.373795 30.644905,137.274796 
	C27.672462,135.480423 24.551533,133.748459 22.048601,131.401413 
	C17.934475,127.543518 18.527636,123.674263 23.319815,120.902153 
	C25.319172,119.745598 27.490292,118.818047 29.680191,118.069984 
	C42.412968,113.720459 55.232464,109.613976 67.868782,105.003639 
	C69.946655,104.245529 72.207626,101.647011 72.775627,99.477890 
	C76.134918,86.649231 79.019257,73.696190 82.064018,60.785152 
	C82.178307,60.300495 82.250809,59.799236 82.424606,59.336433 
	C83.805687,55.658890 84.344711,51.132217 89.072456,50.155670 
	C93.822945,49.174431 96.224030,52.892471 98.599953,56.071449 
	C106.758171,66.987114 114.725075,78.048294 123.046555,88.836761 
	C124.331810,90.503044 127.146088,92.026100 129.164474,91.920372 
	C141.082886,91.296097 152.971741,90.126144 164.878036,89.240768 
	C168.525269,88.969566 172.200348,88.855812 175.855270,88.951767 
	C182.780991,89.133606 184.359467,92.445366 181.218399,100.291580 
	C177.120392,100.698029 173.065659,100.765930 168.255814,100.532806 
	C164.653870,100.483810 161.807007,100.735832 158.960159,100.987854 
	C158.960159,100.987854 159.000336,100.983856 158.991791,100.964142 
	C150.378220,101.528412 141.725067,101.729111 133.181396,102.801842 
	C124.253296,103.922836 118.165894,100.142975 113.193939,93.333458 
	C106.443497,84.088158 99.589310,74.918602 92.444084,65.263138 
	C89.537560,76.813599 86.488548,87.757080 84.086143,98.840721 
	C82.087830,108.060059 77.246651,113.688614 67.929222,116.341309 
	C57.080082,119.430084 46.547985,123.632454 35.039562,127.643929 
	C39.255280,130.071686 43.054996,132.155197 46.749847,134.410522 
	C53.422451,138.483444 60.021950,142.675919 66.671455,146.786957 
	C73.043884,150.726715 75.708717,156.512131 75.997635,163.898987 
	C76.443710,175.303894 77.302284,186.692688 78.015358,198.579330 
	C82.839317,194.034210 87.223671,189.866425 91.649780,185.743439 
	C96.030815,181.662460 100.493393,177.668488 104.848236,173.560089 
	C109.826500,168.863571 115.617889,167.774734 121.938538,169.877380 
	C135.160568,174.275894 148.321091,178.859329 162.194839,183.601974 
	C160.703125,179.066208 159.335876,174.908859 157.983826,170.362091 
	C161.397522,170.035339 164.796021,170.097992 168.651718,170.250153 
z"/>
<path fill="#EC2D7B" opacity="1.000000" stroke="none" 
	d="
M274.214355,138.050476 
	C274.067078,134.652893 273.919647,131.747284 273.772217,128.841675 
	C273.069763,128.823334 272.367340,128.804993 271.664917,128.786652 
	C271.387451,130.373398 270.884583,131.958099 270.870026,133.547241 
	C270.790802,142.210266 270.681671,150.878159 270.898773,159.536438 
	C270.998077,163.496841 269.991211,165.413651 265.614258,165.070618 
	C261.308777,164.733215 256.952667,164.888519 252.625732,165.034378 
	C249.889053,165.126617 248.712875,164.188019 248.724442,161.333984 
	C248.793961,144.173386 248.790344,127.012268 248.725037,109.851646 
	C248.714645,107.125458 249.615921,105.972939 252.486099,105.997177 
	C264.647797,106.099907 276.811249,106.095047 288.973114,106.002289 
	C292.126648,105.978233 292.949249,107.453911 292.921265,110.305077 
	C292.829681,119.634346 292.845459,128.965469 292.930023,138.294891 
	C292.944366,139.875854 293.502258,141.451889 293.809052,143.030212 
	C294.361389,143.009796 294.913727,142.989380 295.466064,142.968979 
	C295.740417,141.350327 296.238098,139.733627 296.252106,138.112732 
	C296.329926,129.116440 296.401764,120.117111 296.238495,111.123116 
	C296.168427,107.262398 297.514893,105.712013 301.490692,105.970459 
	C305.970337,106.261665 310.508942,105.773865 314.966248,106.202881 
	C316.307037,106.331932 318.526276,108.376831 318.542175,109.568123 
	C318.773560,126.892021 318.771301,144.221008 318.535034,161.544830 
	C318.519104,162.710785 316.203217,164.817108 314.923462,164.843246 
	C302.599457,165.094910 290.267822,164.939774 277.939331,165.029373 
	C274.605652,165.053589 274.170288,163.193771 274.193481,160.534805 
	C274.257446,153.204529 274.214752,145.873306 274.214355,138.050476 
z"/>
<path fill="#EC2B7B" opacity="1.000000" stroke="none" 
	d="
M219.140961,125.958115 
	C219.018051,139.349686 214.189835,144.180450 201.348846,144.215225 
	C196.692612,144.227829 192.028336,144.387817 187.382477,144.168228 
	C183.391861,143.979630 182.041000,145.713730 182.226364,149.509109 
	C182.420792,153.490555 182.545349,157.520691 182.101395,161.462082 
	C181.956680,162.746857 180.001465,164.730545 178.751144,164.828888 
	C173.792969,165.218903 168.766647,165.228119 163.810471,164.825745 
	C162.525665,164.721436 160.377518,162.623489 160.361572,161.418304 
	C160.134903,144.292938 160.221680,127.163582 160.193283,110.035255 
	C160.188385,107.080132 161.491577,105.973907 164.466400,105.997932 
	C177.769150,106.105377 191.075424,105.907051 204.375946,106.111115 
	C213.246475,106.247200 218.779007,112.071442 219.107742,120.997841 
	C219.162796,122.492714 219.132172,123.990730 219.140961,125.958115 
M186.020020,122.967270 
	C184.874969,123.613068 183.729904,124.258865 182.584854,124.904663 
	C183.241150,125.537079 183.872375,126.682083 184.557983,126.715637 
	C188.040253,126.886093 191.542664,126.869568 195.022827,126.662842 
	C195.685791,126.623451 196.280396,125.433495 196.906540,124.774384 
	C196.234848,124.185234 195.599884,123.145699 194.884903,123.087387 
	C192.238388,122.871544 189.565491,122.979492 186.020020,122.967270 
z"/>
<path fill="#EC2B7B" opacity="1.000000" stroke="none" 
	d="
M344.270355,130.364258 
	C344.273376,134.486633 344.138641,138.156357 344.369781,141.802902 
	C344.436157,142.849884 345.558990,143.829926 346.197388,144.840668 
	C346.819672,143.866791 347.449738,142.897705 348.054291,141.912903 
	C348.128845,141.791443 348.059357,141.585754 348.069672,141.419922 
	C348.794373,129.794418 348.794464,129.794403 360.610107,129.794510 
	C370.162537,129.794601 370.162750,129.794617 370.146393,139.231537 
	C370.134003,146.387009 370.012451,153.544662 370.157074,160.696945 
	C370.222382,163.926559 369.068146,165.099670 365.804352,165.045349 
	C356.321777,164.887527 346.832794,165.108383 337.350555,164.940308 
	C329.193787,164.795746 323.319672,160.167145 322.831940,152.125366 
	C322.159882,141.043854 322.200165,129.862381 322.849274,118.777229 
	C323.290283,111.246330 328.994019,106.401520 336.529388,106.165878 
	C346.504181,105.853951 356.495880,106.120773 366.479004,106.014267 
	C369.422882,105.982864 370.197205,107.398758 370.129913,110.019226 
	C370.027435,114.010353 369.985931,118.010590 370.140625,121.998337 
	C370.259827,125.070374 368.951080,126.099548 365.985352,126.027626 
	C360.164581,125.886482 354.335266,126.092422 348.514771,125.945778 
	C345.591553,125.872131 344.055359,126.831108 344.270355,130.364258 
z"/>
<path fill="#EC2A7B" opacity="1.000000" stroke="none" 
	d="
M244.964020,136.000000 
	C244.963974,144.331909 244.762527,152.171127 245.046616,159.992722 
	C245.194473,164.063187 243.712418,165.307938 239.832474,165.051819 
	C235.684616,164.777985 231.498596,164.850677 227.340820,165.034348 
	C224.188324,165.173630 222.855591,164.162659 222.878845,160.804291 
	C222.995331,143.974823 222.993790,127.143700 222.878860,110.314209 
	C222.856384,107.021683 224.059616,105.871490 227.271820,106.000473 
	C231.763748,106.180832 236.274109,106.185593 240.765640,106.000343 
	C244.146835,105.860878 245.058090,107.388298 245.008377,110.505280 
	C244.875519,118.834969 244.963699,127.168182 244.964020,136.000000 
z"/>
<path fill="#ED86B6" opacity="1.000000" stroke="none" 
	d="
M154.928467,161.505432 
	C151.973312,154.066940 148.239578,146.336624 146.483017,138.180511 
	C145.683395,134.467682 148.570129,129.822311 150.216736,125.775726 
	C151.135391,123.518135 152.940140,121.621109 154.606354,119.397453 
	C154.897095,133.168808 154.927063,147.104294 154.928467,161.505432 
z"/>
<path fill="#F2E2E6" opacity="1.000000" stroke="none" 
	d="
M159.415375,100.993843 
	C161.807007,100.735832 164.653870,100.483810 167.799072,100.497879 
	C165.355164,100.842598 162.612869,100.921219 159.415375,100.993843 
z"/>
<path fill="#ED83B4" opacity="1.000000" stroke="none" 
	d="
M157.969315,169.749969 
	C157.752762,169.802704 157.479919,169.594513 157.131943,169.128296 
	C157.342224,169.076553 157.627609,169.282806 157.969315,169.749969 
z"/>
<path fill="#EC2B7B" opacity="1.000000" stroke="none" 
	d="
M329.938232,212.617554 
	C328.773407,217.506424 325.614624,219.045883 321.331757,219.046585 
	C313.178528,219.047913 305.022766,218.980255 296.874176,219.184418 
	C295.266571,219.224686 293.686432,220.361191 292.093628,220.992111 
	C292.258148,221.630630 292.422668,222.269135 292.587219,222.907654 
	C300.162720,222.907654 307.738251,222.887527 315.313660,222.912430 
	C326.352142,222.948730 328.201813,225.248413 326.223083,236.848816 
	C311.530060,236.848816 296.767212,236.931259 282.006653,236.784775 
	C278.740662,236.752380 276.588501,234.653229 277.056885,231.209961 
	C278.823578,218.222168 280.701721,205.247925 282.718231,192.296661 
	C283.361267,188.166824 286.887970,187.253555 290.299713,187.210037 
	C302.277985,187.057190 314.261108,187.031937 326.238831,187.204285 
	C331.446228,187.279205 333.240173,189.503479 332.605011,194.479797 
	C331.848572,200.406479 330.883789,206.306564 329.938232,212.617554 
M301.704346,201.120010 
	C299.262970,201.678909 295.400909,199.461227 295.015198,205.013550 
	C301.588043,205.013550 307.973846,205.099167 314.351959,204.916321 
	C315.253143,204.890488 316.116852,203.555618 316.997894,202.826645 
	C316.013245,202.259033 315.051270,201.254074 314.039948,201.201721 
	C310.253662,201.005737 306.451263,201.121307 301.704346,201.120010 
z"/>
<path fill="#EC2D7B" opacity="1.000000" stroke="none" 
	d="
M273.253479,187.289368 
	C277.184296,188.053406 278.323547,190.496704 277.898712,193.646835 
	C276.210022,206.169693 274.471283,218.687347 272.559296,231.177582 
	C271.971130,235.019745 269.097107,236.694427 265.378601,236.866547 
	C263.081879,236.972870 260.776245,236.886261 257.803375,236.886261 
	C259.391113,224.929092 260.927368,213.359909 262.463593,201.790710 
	C261.867310,201.519882 261.271057,201.249039 260.674805,200.978210 
	C259.789001,202.479919 258.391418,203.891006 258.106628,205.499161 
	C256.918182,212.210083 256.061310,218.979843 255.088272,225.728790 
	C253.555420,236.360550 250.588516,238.414963 239.399521,236.408417 
	C240.987274,224.814362 242.576569,213.209122 244.165863,201.603882 
	C243.544159,201.383270 242.922455,201.162659 242.300751,200.942032 
	C241.528122,202.572342 240.348602,204.132797 240.054611,205.845276 
	C238.901352,212.563202 238.028351,219.329208 237.049393,226.077072 
	C235.647507,235.739975 234.269897,236.949570 224.596634,237.000275 
	C222.646866,237.010498 220.696991,237.001755 217.693893,237.001755 
	C224.018906,231.608292 222.637543,224.640366 223.818832,218.482773 
	C225.289368,210.817490 225.990295,203.006866 227.117813,195.272751 
	C228.023880,189.057709 229.989059,187.170868 236.339722,187.114258 
	C248.501862,187.005859 260.666321,187.155502 273.253479,187.289368 
z"/>
<path fill="#FDE189" opacity="1.000000" stroke="none" 
	d="
M186.461258,122.966522 
	C189.565491,122.979492 192.238388,122.871544 194.884903,123.087387 
	C195.599884,123.145699 196.234848,124.185234 196.906540,124.774384 
	C196.280396,125.433495 195.685791,126.623451 195.022827,126.662842 
	C191.542664,126.869568 188.040253,126.886093 184.557983,126.715637 
	C183.872375,126.682083 183.241150,125.537079 182.584854,124.904663 
	C183.729904,124.258865 184.874969,123.613068 186.461258,122.966522 
z"/>
<path fill="#FDE48A" opacity="1.000000" stroke="none" 
	d="
M302.179626,201.120041 
	C306.451263,201.121307 310.253662,201.005737 314.039948,201.201721 
	C315.051270,201.254074 316.013245,202.259033 316.997894,202.826645 
	C316.116852,203.555618 315.253143,204.890488 314.351959,204.916321 
	C307.973846,205.099167 301.588043,205.013550 295.015198,205.013550 
	C295.400909,199.461227 299.262970,201.678909 302.179626,201.120041 
z"/>
</svg>